<?xml version="1.0" encoding="UTF-8"?>
<svg version="1.1" viewBox="0 0 2000 2000" width="1280" height="1280" xmlns="http://www.w3.org/2000/svg">
<path transform="translate(1013,1011)" d="m0 0 23 1 18 3 17 5 16 7 18 10 20 14 15 13 8 7 20 20 9 11 11 13 14 19 14 20 23 35 11 19 11 23 9 23 6 21 2 13v22l-4 17-5 10-7 9-8 8-13 8-14 5-20 4h-2l2-5 8-14 9-19 7-22 3-16 1-12v-19l-4-20-6-16-8-15-11-14-11-11-14-9-16-8-11-4-11-2-11-1h-14l-13 1-15 4-15 6-15 9-12 10-1 2h-2l-2 4-9 11-8 13-3 6-4-4-6-11-9-12-11-12-12-9-14-8-19-7-9-2-9-1h-15l-20 2-16 5-16 8-11 7-10 9-10 11-7 10-8 16-5 13-2 13-1 14 2 27 4 18 5 15 8 18 9 16v2l-11-1-16-5-14-9-10-9-10-14-6-13-3-9-2-12v-9l2-15 8-32 10-30 10-23 9-19 13-23 14-22 14-20 10-13 7-8 8-8 6-7 10-8 16-12 15-9 16-8 19-8 21-6 24-4z" fill="#C09868"/>
<path transform="translate(1132,624)" d="m0 0h23l12 3 16 8 10 8 11 11 9 13 8 15 6 18 3 16 2 20v22l-2 21-5 22-5 16-7 17-10 17-8 11-11 13-10 9-14 10-17 9-12 4-5 1h-19l-17-5-16-9-14-12-10-13-10-17-8-22-4-19-1-9v-29l3-24 5-21 7-20 7-15 9-16 11-14 9-10 13-11 14-9 15-6z" fill="#C09868"/>
<path transform="translate(855,626)" d="m0 0h13l15 3 15 6 15 9 13 10 13 13 13 18 9 16 7 16 7 21 5 25 2 17v28l-4 24-6 18-8 16-6 10-12 13-10 8-14 7-14 4-6 1h-13l-15-4-17-8-12-8-10-8-16-16-11-15-8-14-8-17-8-24-5-25-1-9v-39l4-22 6-18 8-15 10-13 12-12 14-9 12-5z" fill="#C09868"/>
<path transform="translate(1313,848)" d="m0 0h14l14 3 15 8 12 11 8 9 8 14 6 15 4 16 1 7v21l-2 19-5 23-7 20-9 19-14 21-11 13-9 9-15 11-12 7-18 7-14 3-8 1h-11l-16-4-12-6-11-9-9-10-8-13-5-11-5-16-2-11v-29l4-25 6-21 8-20 10-18 10-14 11-13 13-12 15-10 16-8 15-5z" fill="#C09868"/>
<path transform="translate(691,863)" d="m0 0h9l18 3 12 5 16 9 11 8 13 11 10 10 13 17 9 15 9 19 7 21 4 20 1 7v28l-2 15-5 18-7 14-9 12-10 9-14 8-13 4-6 1h-15l-18-5-17-7-15-9-13-10-9-8-7-8-10-12-9-14-9-17-7-19-5-19-2-12-1-11v-16l2-20 5-19 8-16 8-10 9-8 14-8 12-4z" fill="#C09868"/>
<path transform="translate(738,1431)" d="m0 0h33l18 4 14 7 10 9 8 14 4 13v13l-4 13-6 9-4 5-6 4 2 5 7 9 10 16 3 6-1 7-6 8-5 4-5 2h-16l-10-5-8-7-9-13-10-16-3-5-1 5-2 31-3 5-5 3-6 2h-8l-10-3-8-6-6-8-4-10-2-12-1-16v-59l2-20 5-5 16-6zm21 47-4 2v12l1 2h11l6-4-1-8-3-3-3-1z" fill="#FEFEFE"/>
<path transform="translate(458,1431)" d="m0 0h28l19 3 14 5 11 7 9 9 8 14 4 14 1 7v21l-3 16-5 13-7 12-10 11-12 8-21 7-7 1h-23l-11-2-11-4-8-6-6-8-4-16-1-13v-61l1-26 5-5 16-5zm17 39-1 4v60l2 4 7 1 8-3 7-8 4-11 1-7v-18l-3-10-6-8-8-4z" fill="#FEFEFE"/>
<path transform="translate(1275,1432)" d="m0 0h18l11 2 11 6 9 8 6 10 6 14 11 36 9 34 3 13v8l-8 9-8 4-7 2h-11l-10-4-5-5-6-9-2-5h-28l-3 12-4 8-9 3-12 1-10-3-8-6-5-9-2-6v-19l3-15 8-28 12-36 8-18 4-3 11-3zm14 49-3 7-5 20v5l14 1 2-1-5-25-2-7z" fill="#FDFDFD"/>
<path transform="translate(1e3 1430)" d="m0 0h34l14 3 12 5 9 6 7 9 5 11 2 9v20l-3 11-5 10-9 10-8 6-13 5-7 1h-17l-7-2v24l-1 15-5 5-8 3h-13l-9-4-8-7-6-10-3-10-1-11v-67l2-26 3-5 4-3 14-5zm20 47-2 2-1 11 2 5 11-1 5-4v-7l-4-5-3-1z" fill="#FEFEFE"/>
<path transform="translate(879,1433)" d="m0 0h31l35 1 3 2 2 7v14l-4 9-7 8-8 3-9 1h-30l1 6 34 1 8 2 4 8v15l-6 9-8 4-9 1-23 1v6l46 1 5 4 3 10v9l-5 10-8 7-8 3-12 2h-43l-11-2-10-6-6-10-2-7-1-8v-69l1-26 1-12 2-3z" fill="#FDFDFD"/>
<path transform="translate(1421,1430)" d="m0 0h20l15 3 12 6 8 8 4 10v7l-5 10-9 8-4 1-11-7-12-4h-16l-6 2-1 6 10 3 22 5 15 6 9 7 5 5 6 9 3 9v17l-4 12-7 10-9 8-12 5-15 3h-31l-17-4-16-8-7-8-2-6v-8l4-10 7-7 5-2h7l25 8 5 1h12l4-2 2-3-1-7-25-5-13-4-11-6-8-8-6-12-2-12 2-12 6-12 8-9 11-7 11-4z" fill="#FEFEFE"/>
<path transform="translate(1554,1430)" d="m0 0h21l15 3 12 6 8 8 4 9v8l-5 10-8 7-7 1-5-4-12-5-13-2-10 2-3 3 1 4 9 3 21 5 15 6 9 7 7 7 6 12 1 5v15l-4 13-9 12-9 7-10 4-15 3h-30l-14-3-11-4-10-6-6-7-2-6v-7l3-9 4-6 6-4 3-1h7l25 8 5 1h12l5-3 1-6-3-3-10-3-17-3-11-4-10-6-7-7-6-12-2-8 1-13 5-12 7-9 9-7 10-5 11-3z" fill="#FDFDFD"/>
<path transform="translate(583,1431)" d="m0 0h10l10 4 6 9 10 23 7 18 3 2 3-9 10-24 7-15 4-7 10-1 12 3 8 6 5 8 1 3v8l-4 13-8 16-15 29-7 14-1 3-2 38-3 3-9 3-10 1-12-2-8-4-7-8-3-9v-17l-3-10-21-42-14-31-1-9 9-10 9-5z" fill="#FEFEFE"/>
<path transform="translate(1118,1433)" d="m0 0h8l9 3 6 4 6 7 4 11 2 19v49h34l17 1 7 1 3 5 1 4v13l-5 12-4 5-9 6-6 2-12 1h-33l-16-1-10-3-8-5-7-8-4-11-3-20-1-19v-24l1-23 2-18 3-5 6-4z" fill="#FEFEFE"/>
</svg>
